<?xml version="1.0" encoding="UTF-8" standalone="no"?>
<!DOCTYPE svg PUBLIC "-//W3C//DTD SVG 1.1//EN" "http://www.w3.org/Graphics/SVG/1.1/DTD/svg11.dtd">
<svg xmlns="http://www.w3.org/2000/svg" version="1.1" viewBox="0.00 0.00 851.00 898.00">
<g stroke-width="2.00" fill="none" stroke-linecap="butt">
<path stroke="#808080" vector-effect="non-scaling-stroke" d="
  M 570.61 351.67
  A 1.05 1.05 0.0 0 1 570.22 349.80
  L 577.37 344.44
  A 0.60 0.60 0.0 0 0 577.07 343.36
  C 566.30 342.29 551.91 351.81 544.80 339.15
  C 535.28 322.20 530.65 303.44 528.47 284.00
  Q 521.88 225.23 524.97 163.50
  C 526.11 140.71 528.14 119.32 532.42 97.68
  C 535.39 82.70 538.72 67.82 541.28 52.76
  Q 542.69 44.44 542.44 35.99
  Q 542.14 25.24 532.01 21.98
  Q 517.18 17.22 496.24 16.72
  C 468.50 16.07 438.57 19.38 408.99 23.82
  Q 339.07 34.31 271.31 54.69
  Q 243.18 63.15 230.26 68.26
  Q 170.86 91.76 118.95 128.96
  C 86.66 152.11 56.44 179.91 33.58 212.57
  C 19.65 232.49 9.76 254.07 6.76 278.75
  C 5.72 287.27 10.00 290.86 17.17 293.82
  Q 41.01 303.68 61.14 319.84
  C 109.46 358.65 149.59 410.83 178.62 465.35
  C 190.09 486.87 199.26 509.93 207.82 532.73
  C 213.18 546.99 216.90 557.87 218.30 569.76
  Q 219.33 578.58 211.07 580.88
  Q 192.69 586.00 175.51 594.27
  Q 145.23 608.85 117.36 627.62
  C 99.26 639.81 83.54 652.35 71.77 670.79
  C 63.74 683.38 59.23 698.84 61.99 712.53
  C 68.37 744.23 93.55 765.92 120.43 782.06
  C 143.98 796.20 170.15 807.16 197.10 808.72
  C 200.73 808.93 203.01 809.81 205.91 811.60
  C 216.36 818.10 225.25 825.99 234.06 834.52
  C 249.43 849.38 265.71 865.00 284.65 875.29
  C 292.67 879.64 330.83 898.09 331.77 878.23
  C 332.05 872.34 331.78 865.55 333.66 860.37
  C 346.29 825.52 415.05 854.78 436.54 863.85
  C 445.76 867.73 454.05 870.89 463.12 868.43
  Q 466.36 867.55 474.44 864.03
  Q 485.46 859.24 494.92 851.68
  C 512.55 837.60 528.85 821.73 544.64 805.64
  C 566.76 783.08 588.21 759.98 609.62 736.74
  C 624.80 720.26 641.79 706.13 660.47 693.77
  Q 661.84 692.87 677.56 683.36
  C 704.19 667.25 730.05 646.80 752.81 624.56
  Q 764.72 612.93 777.44 602.19
  C 781.99 598.35 786.62 594.32 790.68 593.49
  C 796.39 592.32 801.83 580.54 804.10 575.68
  Q 819.82 542.04 827.90 505.78
  C 832.72 484.16 833.03 461.36 829.88 439.49
  C 828.21 427.90 824.40 410.23 815.19 402.16
  C 806.72 394.74 793.46 414.09 789.52 419.97
  Q 768.97 450.68 757.16 485.82
  Q 752.52 499.63 751.23 503.25
  C 744.19 523.06 733.26 542.54 717.40 556.65
  C 705.16 567.55 688.18 573.82 672.58 567.05
  C 668.13 565.11 661.52 560.46 655.38 557.91
  C 636.90 550.22 621.03 559.75 607.84 572.09
  C 595.68 583.47 583.41 597.39 575.85 612.34
  Q 573.08 617.82 575.51 623.25
  C 579.86 633.00 591.80 632.81 599.56 627.53
  C 603.38 624.93 609.94 618.44 613.76 618.03
  C 623.21 617.00 610.43 638.72 608.81 641.29
  C 594.47 664.02 574.23 683.65 550.37 696.09
  Q 543.94 699.44 540.28 700.60
  C 527.04 704.79 514.32 710.07 503.62 719.09
  C 499.75 722.35 494.58 729.30 495.49 734.64
  C 497.09 743.96 512.90 740.74 518.51 739.11
  C 539.83 732.91 557.06 719.00 575.83 707.65
  Q 577.66 706.54 577.71 708.68
  Q 577.71 708.80 577.10 709.93
  Q 572.52 718.47 566.87 726.35
  C 553.81 744.57 539.38 763.36 523.94 778.94
  C 522.31 780.58 520.21 782.10 517.72 782.78
  Q 494.34 789.18 470.71 794.57
  C 463.59 796.19 454.65 797.92 448.98 792.75
  C 439.01 783.64 428.92 778.89 415.04 781.57
  C 402.72 783.95 395.40 790.25 386.47 798.45
  Q 381.23 803.27 374.57 805.66
  C 367.86 808.08 366.19 796.21 365.92 792.23
  C 364.57 771.86 369.93 750.98 379.51 733.05
  C 383.73 725.15 390.24 715.00 389.88 705.74
  A 2.21 2.21 0.0 0 0 387.93 703.63
  C 383.12 703.06 376.16 712.64 372.80 709.46
  C 370.79 707.55 370.99 703.25 371.25 700.76
  Q 373.07 683.19 382.00 667.98
  C 389.25 655.64 397.86 645.99 399.73 630.84
  Q 401.05 620.22 405.65 608.84
  Q 414.91 585.93 426.70 568.21
  C 433.36 558.19 439.47 551.97 450.34 546.91
  Q 452.60 545.85 453.77 547.21
  A 1.44 1.42 -62.4 0 1 454.12 548.36
  C 452.93 557.54 447.95 567.29 444.71 575.98
  C 439.62 589.58 436.22 617.58 459.32 617.18
  C 485.25 616.73 492.37 575.79 494.32 557.00
  C 497.42 527.23 500.15 498.07 518.83 474.19
  C 527.44 463.20 540.01 453.27 552.12 445.57
  Q 560.11 440.50 562.64 439.12
  C 580.62 429.30 596.79 417.58 610.38 402.14
  C 617.20 394.41 624.17 384.20 624.99 373.49
  C 625.16 371.18 624.95 368.10 625.94 365.98
  A 1.20 1.20 0.0 0 1 627.96 365.73
  C 641.52 382.68 624.64 409.44 613.05 422.81
  C 598.21 439.93 580.73 455.65 575.50 478.99
  C 572.19 493.78 574.67 514.99 583.21 528.83
  C 589.63 539.24 599.32 541.50 605.89 529.74
  C 609.76 522.82 610.89 511.86 612.28 506.49
  C 618.22 483.57 641.18 463.42 662.53 455.54
  C 665.18 454.56 669.52 453.60 671.77 454.36
  C 676.19 455.87 672.45 462.41 670.40 464.91
  C 662.79 474.16 655.39 481.56 651.71 493.85
  C 648.33 505.15 652.17 514.97 665.15 514.81
  C 672.78 514.72 680.28 510.48 686.43 506.43
  C 708.31 492.00 728.17 472.13 744.31 451.58
  Q 750.55 443.65 758.14 429.65
  Q 769.73 408.30 788.90 388.42
  Q 794.66 382.45 800.28 376.67
  Q 800.61 376.32 800.23 376.03
  C 784.31 363.87 770.42 352.56 750.77 343.99
  C 740.19 339.37 728.42 337.76 717.00 336.93
  Q 671.21 333.61 626.00 340.87
  C 608.24 343.72 591.15 349.33 573.25 351.71
  Q 571.67 351.92 570.61 351.67"
/>
<path stroke="#808080" vector-effect="non-scaling-stroke" d="
  M 275.29 798.42
  Q 260.37 793.03 246.41 794.06
  C 240.05 794.53 232.03 796.81 225.04 798.29
  Q 224.26 798.46 224.86 798.98
  Q 241.28 813.23 258.14 827.35
  C 266.15 834.05 275.11 841.15 284.95 844.87
  Q 294.12 848.34 301.02 841.80
  C 321.57 822.34 290.29 803.84 275.29 798.42"
/>
</g>
<path fill="#000000" d="
  M 0.00 0.00
  L 851.00 0.00
  L 851.00 898.00
  L 0.00 898.00
  L 0.00 0.00
  Z
  M 570.61 351.67
  A 1.05 1.05 0.0 0 1 570.22 349.80
  L 577.37 344.44
  A 0.60 0.60 0.0 0 0 577.07 343.36
  C 566.30 342.29 551.91 351.81 544.80 339.15
  C 535.28 322.20 530.65 303.44 528.47 284.00
  Q 521.88 225.23 524.97 163.50
  C 526.11 140.71 528.14 119.32 532.42 97.68
  C 535.39 82.70 538.72 67.82 541.28 52.76
  Q 542.69 44.44 542.44 35.99
  Q 542.14 25.24 532.01 21.98
  Q 517.18 17.22 496.24 16.72
  C 468.50 16.07 438.57 19.38 408.99 23.82
  Q 339.07 34.31 271.31 54.69
  Q 243.18 63.15 230.26 68.26
  Q 170.86 91.76 118.95 128.96
  C 86.66 152.11 56.44 179.91 33.58 212.57
  C 19.65 232.49 9.76 254.07 6.76 278.75
  C 5.72 287.27 10.00 290.86 17.17 293.82
  Q 41.01 303.68 61.14 319.84
  C 109.46 358.65 149.59 410.83 178.62 465.35
  C 190.09 486.87 199.26 509.93 207.82 532.73
  C 213.18 546.99 216.90 557.87 218.30 569.76
  Q 219.33 578.58 211.07 580.88
  Q 192.69 586.00 175.51 594.27
  Q 145.23 608.85 117.36 627.62
  C 99.26 639.81 83.54 652.35 71.77 670.79
  C 63.74 683.38 59.23 698.84 61.99 712.53
  C 68.37 744.23 93.55 765.92 120.43 782.06
  C 143.98 796.20 170.15 807.16 197.10 808.72
  C 200.73 808.93 203.01 809.81 205.91 811.60
  C 216.36 818.10 225.25 825.99 234.06 834.52
  C 249.43 849.38 265.71 865.00 284.65 875.29
  C 292.67 879.64 330.83 898.09 331.77 878.23
  C 332.05 872.34 331.78 865.55 333.66 860.37
  C 346.29 825.52 415.05 854.78 436.54 863.85
  C 445.76 867.73 454.05 870.89 463.12 868.43
  Q 466.36 867.55 474.44 864.03
  Q 485.46 859.24 494.92 851.68
  C 512.55 837.60 528.85 821.73 544.64 805.64
  C 566.76 783.08 588.21 759.98 609.62 736.74
  C 624.80 720.26 641.79 706.13 660.47 693.77
  Q 661.84 692.87 677.56 683.36
  C 704.19 667.25 730.05 646.80 752.81 624.56
  Q 764.72 612.93 777.44 602.19
  C 781.99 598.35 786.62 594.32 790.68 593.49
  C 796.39 592.32 801.83 580.54 804.10 575.68
  Q 819.82 542.04 827.90 505.78
  C 832.72 484.16 833.03 461.36 829.88 439.49
  C 828.21 427.90 824.40 410.23 815.19 402.16
  C 806.72 394.74 793.46 414.09 789.52 419.97
  Q 768.97 450.68 757.16 485.82
  Q 752.52 499.63 751.23 503.25
  C 744.19 523.06 733.26 542.54 717.40 556.65
  C 705.16 567.55 688.18 573.82 672.58 567.05
  C 668.13 565.11 661.52 560.46 655.38 557.91
  C 636.90 550.22 621.03 559.75 607.84 572.09
  C 595.68 583.47 583.41 597.39 575.85 612.34
  Q 573.08 617.82 575.51 623.25
  C 579.86 633.00 591.80 632.81 599.56 627.53
  C 603.38 624.93 609.94 618.44 613.76 618.03
  C 623.21 617.00 610.43 638.72 608.81 641.29
  C 594.47 664.02 574.23 683.65 550.37 696.09
  Q 543.94 699.44 540.28 700.60
  C 527.04 704.79 514.32 710.07 503.62 719.09
  C 499.75 722.35 494.58 729.30 495.49 734.64
  C 497.09 743.96 512.90 740.74 518.51 739.11
  C 539.83 732.91 557.06 719.00 575.83 707.65
  Q 577.66 706.54 577.71 708.68
  Q 577.71 708.80 577.10 709.93
  Q 572.52 718.47 566.87 726.35
  C 553.81 744.57 539.38 763.36 523.94 778.94
  C 522.31 780.58 520.21 782.10 517.72 782.78
  Q 494.34 789.18 470.71 794.57
  C 463.59 796.19 454.65 797.92 448.98 792.75
  C 439.01 783.64 428.92 778.89 415.04 781.57
  C 402.72 783.95 395.40 790.25 386.47 798.45
  Q 381.23 803.27 374.57 805.66
  C 367.86 808.08 366.19 796.21 365.92 792.23
  C 364.57 771.86 369.93 750.98 379.51 733.05
  C 383.73 725.15 390.24 715.00 389.88 705.74
  A 2.21 2.21 0.0 0 0 387.93 703.63
  C 383.12 703.06 376.16 712.64 372.80 709.46
  C 370.79 707.55 370.99 703.25 371.25 700.76
  Q 373.07 683.19 382.00 667.98
  C 389.25 655.64 397.86 645.99 399.73 630.84
  Q 401.05 620.22 405.65 608.84
  Q 414.91 585.93 426.70 568.21
  C 433.36 558.19 439.47 551.97 450.34 546.91
  Q 452.60 545.85 453.77 547.21
  A 1.44 1.42 -62.4 0 1 454.12 548.36
  C 452.93 557.54 447.95 567.29 444.71 575.98
  C 439.62 589.58 436.22 617.58 459.32 617.18
  C 485.25 616.73 492.37 575.79 494.32 557.00
  C 497.42 527.23 500.15 498.07 518.83 474.19
  C 527.44 463.20 540.01 453.27 552.12 445.57
  Q 560.11 440.50 562.64 439.12
  C 580.62 429.30 596.79 417.58 610.38 402.14
  C 617.20 394.41 624.17 384.20 624.99 373.49
  C 625.16 371.18 624.95 368.10 625.94 365.98
  A 1.20 1.20 0.0 0 1 627.96 365.73
  C 641.52 382.68 624.64 409.44 613.05 422.81
  C 598.21 439.93 580.73 455.65 575.50 478.99
  C 572.19 493.78 574.67 514.99 583.21 528.83
  C 589.63 539.24 599.32 541.50 605.89 529.74
  C 609.76 522.82 610.89 511.86 612.28 506.49
  C 618.22 483.57 641.18 463.42 662.53 455.54
  C 665.18 454.56 669.52 453.60 671.77 454.36
  C 676.19 455.87 672.45 462.41 670.40 464.91
  C 662.79 474.16 655.39 481.56 651.71 493.85
  C 648.33 505.15 652.17 514.97 665.15 514.81
  C 672.78 514.72 680.28 510.48 686.43 506.43
  C 708.31 492.00 728.17 472.13 744.31 451.58
  Q 750.55 443.65 758.14 429.65
  Q 769.73 408.30 788.90 388.42
  Q 794.66 382.45 800.28 376.67
  Q 800.61 376.32 800.23 376.03
  C 784.31 363.87 770.42 352.56 750.77 343.99
  C 740.19 339.37 728.42 337.76 717.00 336.93
  Q 671.21 333.61 626.00 340.87
  C 608.24 343.72 591.15 349.33 573.25 351.71
  Q 571.67 351.92 570.61 351.67
  Z"
/>
<path fill="#ffffff" d="
  M 570.61 351.67
  Q 571.67 351.92 573.25 351.71
  C 591.15 349.33 608.24 343.72 626.00 340.87
  Q 671.21 333.61 717.00 336.93
  C 728.42 337.76 740.19 339.37 750.77 343.99
  C 770.42 352.56 784.31 363.87 800.23 376.03
  Q 800.61 376.32 800.28 376.67
  Q 794.66 382.45 788.90 388.42
  Q 769.73 408.30 758.14 429.65
  Q 750.55 443.65 744.31 451.58
  C 728.17 472.13 708.31 492.00 686.43 506.43
  C 680.28 510.48 672.78 514.72 665.15 514.81
  C 652.17 514.97 648.33 505.15 651.71 493.85
  C 655.39 481.56 662.79 474.16 670.40 464.91
  C 672.45 462.41 676.19 455.87 671.77 454.36
  C 669.52 453.60 665.18 454.56 662.53 455.54
  C 641.18 463.42 618.22 483.57 612.28 506.49
  C 610.89 511.86 609.76 522.82 605.89 529.74
  C 599.32 541.50 589.63 539.24 583.21 528.83
  C 574.67 514.99 572.19 493.78 575.50 478.99
  C 580.73 455.65 598.21 439.93 613.05 422.81
  C 624.64 409.44 641.52 382.68 627.96 365.73
  A 1.20 1.20 0.0 0 0 625.94 365.98
  C 624.95 368.10 625.16 371.18 624.99 373.49
  C 624.17 384.20 617.20 394.41 610.38 402.14
  C 596.79 417.58 580.62 429.30 562.64 439.12
  Q 560.11 440.50 552.12 445.57
  C 540.01 453.27 527.44 463.20 518.83 474.19
  C 500.15 498.07 497.42 527.23 494.32 557.00
  C 492.37 575.79 485.25 616.73 459.32 617.18
  C 436.22 617.58 439.62 589.58 444.71 575.98
  C 447.95 567.29 452.93 557.54 454.12 548.36
  A 1.44 1.42 -62.4 0 0 453.77 547.21
  Q 452.60 545.85 450.34 546.91
  C 439.47 551.97 433.36 558.19 426.70 568.21
  Q 414.91 585.93 405.65 608.84
  Q 401.05 620.22 399.73 630.84
  C 397.86 645.99 389.25 655.64 382.00 667.98
  Q 373.07 683.19 371.25 700.76
  C 370.99 703.25 370.79 707.55 372.80 709.46
  C 376.16 712.64 383.12 703.06 387.93 703.63
  A 2.21 2.21 0.0 0 1 389.88 705.74
  C 390.24 715.00 383.73 725.15 379.51 733.05
  C 369.93 750.98 364.57 771.86 365.92 792.23
  C 366.19 796.21 367.86 808.08 374.57 805.66
  Q 381.23 803.27 386.47 798.45
  C 395.40 790.25 402.72 783.95 415.04 781.57
  C 428.92 778.89 439.01 783.64 448.98 792.75
  C 454.65 797.92 463.59 796.19 470.71 794.57
  Q 494.34 789.18 517.72 782.78
  C 520.21 782.10 522.31 780.58 523.94 778.94
  C 539.38 763.36 553.81 744.57 566.87 726.35
  Q 572.52 718.47 577.10 709.93
  Q 577.71 708.80 577.71 708.68
  Q 577.66 706.54 575.83 707.65
  C 557.06 719.00 539.83 732.91 518.51 739.11
  C 512.90 740.74 497.09 743.96 495.49 734.64
  C 494.58 729.30 499.75 722.35 503.62 719.09
  C 514.32 710.07 527.04 704.79 540.28 700.60
  Q 543.94 699.44 550.37 696.09
  C 574.23 683.65 594.47 664.02 608.81 641.29
  C 610.43 638.72 623.21 617.00 613.76 618.03
  C 609.94 618.44 603.38 624.93 599.56 627.53
  C 591.80 632.81 579.86 633.00 575.51 623.25
  Q 573.08 617.82 575.85 612.34
  C 583.41 597.39 595.68 583.47 607.84 572.09
  C 621.03 559.75 636.90 550.22 655.38 557.91
  C 661.52 560.46 668.13 565.11 672.58 567.05
  C 688.18 573.82 705.16 567.55 717.40 556.65
  C 733.26 542.54 744.19 523.06 751.23 503.25
  Q 752.52 499.63 757.16 485.82
  Q 768.97 450.68 789.52 419.97
  C 793.46 414.09 806.72 394.74 815.19 402.16
  C 824.40 410.23 828.21 427.90 829.88 439.49
  C 833.03 461.36 832.72 484.16 827.90 505.78
  Q 819.82 542.04 804.10 575.68
  C 801.83 580.54 796.39 592.32 790.68 593.49
  C 786.62 594.32 781.99 598.35 777.44 602.19
  Q 764.72 612.93 752.81 624.56
  C 730.05 646.80 704.19 667.25 677.56 683.36
  Q 661.84 692.87 660.47 693.77
  C 641.79 706.13 624.80 720.26 609.62 736.74
  C 588.21 759.98 566.76 783.08 544.64 805.64
  C 528.85 821.73 512.55 837.60 494.92 851.68
  Q 485.46 859.24 474.44 864.03
  Q 466.36 867.55 463.12 868.43
  C 454.05 870.89 445.76 867.73 436.54 863.85
  C 415.05 854.78 346.29 825.52 333.66 860.37
  C 331.78 865.55 332.05 872.34 331.77 878.23
  C 330.83 898.09 292.67 879.64 284.65 875.29
  C 265.71 865.00 249.43 849.38 234.06 834.52
  C 225.25 825.99 216.36 818.10 205.91 811.60
  C 203.01 809.81 200.73 808.93 197.10 808.72
  C 170.15 807.16 143.98 796.20 120.43 782.06
  C 93.55 765.92 68.37 744.23 61.99 712.53
  C 59.23 698.84 63.74 683.38 71.77 670.79
  C 83.54 652.35 99.26 639.81 117.36 627.62
  Q 145.23 608.85 175.51 594.27
  Q 192.69 586.00 211.07 580.88
  Q 219.33 578.58 218.30 569.76
  C 216.90 557.87 213.18 546.99 207.82 532.73
  C 199.26 509.93 190.09 486.87 178.62 465.35
  C 149.59 410.83 109.46 358.65 61.14 319.84
  Q 41.01 303.68 17.17 293.82
  C 10.00 290.86 5.72 287.27 6.76 278.75
  C 9.76 254.07 19.65 232.49 33.58 212.57
  C 56.44 179.91 86.66 152.11 118.95 128.96
  Q 170.86 91.76 230.26 68.26
  Q 243.18 63.15 271.31 54.69
  Q 339.07 34.31 408.99 23.82
  C 438.57 19.38 468.50 16.07 496.24 16.72
  Q 517.18 17.22 532.01 21.98
  Q 542.14 25.24 542.44 35.99
  Q 542.69 44.44 541.28 52.76
  C 538.72 67.82 535.39 82.70 532.42 97.68
  C 528.14 119.32 526.11 140.71 524.97 163.50
  Q 521.88 225.23 528.47 284.00
  C 530.65 303.44 535.28 322.20 544.80 339.15
  C 551.91 351.81 566.30 342.29 577.07 343.36
  A 0.60 0.60 0.0 0 1 577.37 344.44
  L 570.22 349.80
  A 1.05 1.05 0.0 0 0 570.61 351.67
  Z
  M 275.29 798.42
  Q 260.37 793.03 246.41 794.06
  C 240.05 794.53 232.03 796.81 225.04 798.29
  Q 224.26 798.46 224.86 798.98
  Q 241.28 813.23 258.14 827.35
  C 266.15 834.05 275.11 841.15 284.95 844.87
  Q 294.12 848.34 301.02 841.80
  C 321.57 822.34 290.29 803.84 275.29 798.42
  Z"
/>
<path fill="#000000" d="
  M 275.29 798.42
  C 290.29 803.84 321.57 822.34 301.02 841.80
  Q 294.12 848.34 284.95 844.87
  C 275.11 841.15 266.15 834.05 258.14 827.35
  Q 241.28 813.23 224.86 798.98
  Q 224.26 798.46 225.04 798.29
  C 232.03 796.81 240.05 794.53 246.41 794.06
  Q 260.37 793.03 275.29 798.42
  Z"
/>
</svg>
